<?xml version="1.0" standalone="no"?>
<!DOCTYPE svg PUBLIC "-//W3C//DTD SVG 20010904//EN"
 "http://www.w3.org/TR/2001/REC-SVG-20010904/DTD/svg10.dtd">
<svg version="1.0" xmlns="http://www.w3.org/2000/svg"
 width="480.000000pt" height="480.000000pt" viewBox="0 0 480.000000 480.000000"
 preserveAspectRatio="xMidYMid meet">
<metadata>
Created by potrace 1.14, written by Peter Selinger 2001-2017
</metadata>
<g transform="translate(0.000000,480.000000) scale(0.100000,-0.100000)"
fill="#000000" stroke="none">
<path d="M0 2400 l0 -2400 2400 0 2400 0 0 2400 0 2400 -2400 0 -2400 0 0
-2400z m2505 1970 c65 -10 174 -39 220 -60 203 -91 302 -159 404 -277 39 -45
71 -86 71 -91 0 -5 9 -17 20 -27 23 -21 120 -160 120 -172 0 -4 10 -24 22 -43
36 -57 97 -230 102 -290 2 -20 8 -45 14 -57 16 -29 15 -33 -8 -33 -24 0 -39
11 -84 59 -31 34 -123 81 -194 100 -58 16 -220 22 -266 11 -78 -20 -109 -42
-126 -85 -6 -15 -19 -29 -30 -32 -11 -3 -17 -9 -14 -15 3 -5 -14 -29 -38 -53
-60 -60 -81 -86 -74 -92 9 -10 -20 -31 -55 -41 -31 -8 -27 -9 43 -16 43 -4 82
-5 87 -1 6 3 26 2 44 -3 21 -6 40 -6 51 0 23 13 30 4 16 -21 -7 -13 -7 -21 -1
-21 20 0 -1 -28 -25 -34 -19 -5 -24 -13 -24 -36 0 -45 0 -44 -22 -56 -13 -7
-38 -8 -75 -2 -49 8 -57 6 -83 -14 -31 -24 -37 -38 -19 -38 14 0 149 -136 149
-150 0 -14 39 -98 67 -143 17 -26 39 -44 71 -58 26 -10 59 -26 74 -34 14 -8
34 -15 43 -15 9 0 31 -6 48 -14 37 -16 151 -43 217 -50 25 -3 65 -8 90 -11 25
-3 60 -8 78 -11 37 -7 92 12 92 32 0 17 10 23 54 30 33 5 40 1 77 -36 l40 -40
-2 -83 c-1 -45 -7 -88 -12 -94 -6 -9 -6 -13 2 -13 13 0 12 -68 -1 -76 -4 -3
-8 -22 -8 -42 0 -20 -4 -44 -10 -52 -6 -9 -5 -19 3 -29 9 -11 7 -17 -11 -29
-12 -8 -22 -20 -22 -26 0 -6 -7 -23 -14 -39 -8 -15 -11 -27 -5 -27 5 0 9 -11
9 -25 0 -14 -4 -25 -10 -25 -5 0 -6 -7 -3 -17 4 -11 3 -14 -5 -9 -8 5 -12 -2
-12 -19 0 -19 -6 -29 -21 -32 -12 -3 -22 -17 -26 -34 -3 -15 -15 -35 -28 -43
-13 -9 -24 -29 -28 -50 -3 -20 -17 -50 -31 -68 -13 -18 -32 -53 -42 -78 -9
-25 -24 -51 -33 -58 -14 -11 -14 -14 -1 -22 10 -6 11 -10 3 -10 -7 0 -23 -16
-35 -35 -13 -19 -31 -35 -42 -35 -13 0 -16 -5 -12 -18 4 -11 -1 -8 -15 8 -12
14 -26 24 -31 22 -5 -1 -4 7 2 18 8 14 8 26 0 41 -7 11 -9 23 -6 26 3 3 -1 18
-9 33 -8 15 -12 30 -10 32 11 11 -36 85 -62 98 -15 8 -41 23 -58 35 -45 32
-96 53 -144 61 -25 4 -47 14 -54 25 -16 25 -48 24 -54 -2 -7 -25 -48 -43 -71
-30 -24 13 -169 20 -180 9 -5 -5 -65 -8 -133 -8 -210 2 -229 1 -264 -16 -21
-10 -45 -14 -61 -10 -17 5 -24 3 -19 -4 4 -7 -2 -14 -14 -17 -12 -3 -21 -10
-21 -15 0 -5 -5 -6 -11 -3 -6 4 -8 13 -5 21 3 8 0 14 -6 14 -6 0 -4 8 5 18 10
10 17 22 17 26 0 15 -43 0 -54 -18 -26 -45 -39 -54 -70 -49 -48 7 -147 -71
-171 -134 -10 -27 -23 -52 -29 -56 -8 -6 -7 -10 1 -14 10 -4 10 -9 1 -26 -7
-12 -11 -25 -10 -29 1 -5 -2 -8 -8 -8 -13 0 -5 -63 9 -68 6 -2 11 -11 11 -19
0 -9 -6 -13 -15 -10 -8 4 -17 1 -21 -6 -4 -7 -4 -9 1 -5 4 4 17 2 28 -3 18
-10 17 -12 -19 -29 -38 -17 -100 -18 -117 -1 -5 5 -1 16 8 25 15 14 14 15 -15
9 -24 -4 -31 -2 -30 8 4 28 0 38 -15 33 -8 -4 -15 -15 -15 -25 0 -30 -17 -22
-23 11 -5 22 -10 28 -23 23 -14 -5 -15 -1 -9 25 6 29 4 32 -19 32 -22 0 -25 4
-21 31 2 20 -1 32 -11 36 -7 3 -11 9 -8 14 3 5 -2 9 -10 9 -19 0 -21 26 -3 33
6 3 3 6 -8 6 -19 1 -45 40 -45 67 0 16 -57 64 -76 64 -8 0 -14 9 -14 21 0 32
-20 61 -37 55 -12 -5 -14 -1 -11 19 3 13 0 26 -6 28 -8 3 -8 9 0 23 6 10 8 26
3 34 -14 27 -39 124 -41 160 -1 19 -7 38 -13 42 -6 5 -3 8 8 8 9 0 17 4 17 9
0 5 -8 12 -17 15 -12 4 -19 18 -20 41 -4 49 -7 59 -18 67 -6 5 -6 15 3 28 10
17 10 21 -3 26 -8 3 -12 10 -9 15 3 5 0 9 -6 9 -5 0 -10 12 -9 28 1 15 -2 35
-5 44 -6 13 -3 16 16 12 13 -2 16 -1 8 2 -48 22 -62 77 -30 114 11 13 20 26
20 30 0 12 48 29 123 45 101 21 152 20 177 -5 11 -11 27 -20 36 -20 9 0 29
-10 46 -21 45 -32 87 -38 174 -23 151 26 279 78 352 142 36 31 40 37 97 147
36 71 112 165 133 165 5 0 23 6 39 14 74 37 118 42 223 21 32 -7 34 -6 19 9
-18 19 -147 28 -208 15 -20 -5 -65 -15 -101 -22 -36 -8 -77 -18 -92 -22 -18
-4 -28 -3 -28 4 0 17 36 31 82 31 50 0 114 34 85 46 -9 3 -28 3 -42 0 -14 -4
-36 -4 -50 0 -22 5 -25 12 -25 51 0 36 -4 46 -20 50 -26 7 -26 29 1 36 11 3
23 15 26 26 3 12 17 22 34 26 16 4 29 11 29 17 0 6 -18 32 -40 58 -22 26 -40
51 -40 55 0 4 -20 28 -45 53 -25 25 -45 49 -45 53 0 4 -23 22 -51 40 -47 30
-58 33 -123 32 -106 -2 -148 -10 -211 -38 -32 -14 -63 -25 -70 -25 -7 0 -39
-18 -71 -40 -33 -22 -67 -40 -77 -40 -10 0 -21 -8 -24 -17 -8 -24 -87 -103
-102 -103 -6 0 -11 -4 -11 -9 0 -5 -15 -16 -34 -25 -38 -18 -44 -31 -50 -96
-3 -31 -11 -50 -27 -63 -24 -20 -26 -37 -15 -209 3 -45 1 -78 -5 -78 -5 0 -9
-4 -9 -9 0 -6 13 -6 33 -1 17 4 48 11 67 14 30 6 33 5 20 -8 -39 -37 -200 -83
-200 -57 0 12 29 41 41 41 5 0 9 5 9 10 0 16 -52 0 -80 -25 -14 -13 -40 -26
-57 -30 l-33 -7 -1 74 c-1 40 -2 82 -3 93 0 11 3 23 8 27 5 3 10 15 11 26 2
29 24 52 50 52 12 0 40 7 61 16 34 15 36 18 19 24 -11 4 -27 5 -35 3 -9 -2 -7
2 4 9 42 28 66 61 62 84 -3 13 0 26 5 29 5 4 9 15 9 26 0 11 4 18 9 14 5 -3
12 3 15 12 9 31 11 117 3 140 -6 17 -5 22 5 18 10 -4 14 6 14 37 1 24 4 57 8
73 4 17 11 59 15 95 4 36 15 79 24 95 9 17 17 37 17 45 0 8 7 24 15 34 8 11
15 27 15 37 0 17 71 127 141 218 99 128 299 290 396 321 21 7 44 17 50 22 7 6
86 23 175 38 174 30 308 36 423 20z m-622 -980 c16 -19 16 -20 -1 -21 -20 -2
-21 -1 -82 17 l-45 14 43 -6 c27 -4 42 -2 42 5 0 18 24 13 43 -9z m1077 -45
c0 -2 -24 -19 -52 -38 -77 -49 -78 -49 -78 -40 0 5 25 25 56 46 53 34 74 44
74 32z m-1086 -24 c8 -13 -13 -18 -43 -13 -23 5 -24 6 -6 13 28 11 43 11 49 0z
m-283 -26 c-51 -13 -103 -27 -115 -30 -13 -4 -8 2 12 15 40 25 91 38 152 39
39 0 33 -3 -49 -24z m1529 1 c0 -3 -26 -19 -57 -37 -32 -18 -79 -47 -105 -65
-26 -18 -45 -27 -42 -19 9 22 99 85 152 106 54 21 52 20 52 15z m-141 -34
c-50 -38 -122 -83 -126 -79 -5 5 41 40 97 74 43 26 61 29 29 5z m-975 -28 c17
-7 22 -34 7 -34 -5 0 -16 -3 -24 -6 -11 -4 -13 1 -10 20 6 29 5 28 27 20z
m876 -211 c-1 -14 -49 -43 -55 -33 -3 5 7 16 22 24 33 18 33 18 33 9z m930
-54 c35 -18 41 -25 36 -45 -4 -13 -2 -24 3 -24 5 0 7 -24 5 -52 -8 -115 -22
-154 -46 -130 -7 7 -23 6 -50 -4 -54 -19 -90 -18 -127 4 -39 21 -39 55 -1 60
35 5 43 16 42 56 -1 19 4 41 11 48 7 7 17 29 23 48 6 21 20 40 34 47 31 16 22
17 70 -8z m-1013 -15 c-3 -3 -12 -4 -19 -1 -8 3 -5 6 6 6 11 1 17 -2 13 -5z
m40 -31 c5 -13 -20 -23 -69 -29 -61 -8 -48 21 16 37 37 8 48 7 53 -8z m-1747
-433 c0 -5 -4 -10 -10 -10 -5 0 -10 5 -10 10 0 6 5 10 10 10 6 0 10 -4 10 -10z
m-80 -594 c0 -8 -4 -18 -10 -21 -5 -3 -10 3 -10 14 0 12 5 21 10 21 6 0 10 -6
10 -14z m18 -75 c15 -29 18 -41 9 -45 -8 -3 -4 -11 10 -23 28 -22 43 -70 38
-119 -5 -52 -17 -60 -51 -31 -25 22 -29 32 -32 96 -2 39 -8 68 -13 65 -5 -3
-9 5 -9 16 0 14 5 20 13 17 9 -3 12 5 9 29 -5 44 1 43 26 -5z m1802 -137 c0
-2 -7 -4 -15 -4 -8 0 -15 4 -15 10 0 5 7 7 15 4 8 -4 15 -8 15 -10z m-290
-210 c25 -3 95 -7 155 -9 114 -2 175 -12 175 -26 0 -13 -40 -31 -55 -25 -8 3
-17 1 -21 -5 -3 -5 -14 -9 -23 -7 -10 2 -24 -2 -32 -9 -8 -6 -41 -14 -74 -17
-33 -3 -80 -8 -105 -12 -49 -7 -80 -7 -185 -1 -72 4 -91 8 -136 31 -23 12 -29
12 -41 0 -8 -8 -38 -16 -66 -17 -44 -3 -53 0 -58 16 -3 10 -12 16 -19 13 -9
-3 -11 2 -8 15 6 21 23 26 23 7 0 -8 5 -6 10 4 16 27 143 58 155 38 6 -10 53
-4 68 10 9 8 162 4 237 -6z m-548 -64 c6 0 5 -7 -3 -17 -12 -15 -12 -16 4 -10
15 6 16 2 11 -36 -4 -23 -13 -48 -22 -54 -14 -12 -14 -13 1 -13 11 0 17 -8 17
-25 0 -22 -4 -25 -40 -25 -36 0 -40 3 -40 25 0 20 -7 26 -40 36 -44 13 -51 24
-20 32 11 3 20 12 20 21 0 9 5 16 10 16 6 0 9 4 8 10 -4 13 54 50 70 44 8 -2
18 -4 24 -4z m1050 -52 c-5 -22 -25 -23 -41 -4 -9 11 -10 20 -1 35 10 19 11
20 28 3 10 -9 16 -25 14 -34z m-1235 -260 c-3 -8 -6 -5 -6 6 -1 11 2 17 5 13
3 -3 4 -12 1 -19z m75 -13 c-5 -29 5 -32 24 -7 8 10 13 12 14 5 0 -7 7 -10 15
-7 8 4 21 2 28 -3 6 -5 53 -10 102 -12 50 -1 92 -6 93 -12 6 -14 22 -11 22 5
0 12 17 14 103 8 115 -7 180 -6 422 7 93 5 172 6 175 2 10 -15 49 -31 54 -23
3 5 22 9 43 10 21 1 49 4 63 7 14 3 36 7 49 10 14 2 29 9 35 15 12 12 46 -15
46 -37 0 -7 4 -13 9 -13 25 0 -11 -145 -41 -164 -10 -6 -18 -16 -18 -22 0 -7
-7 -14 -15 -18 -8 -3 -15 -12 -15 -19 0 -8 -14 -21 -32 -28 -18 -7 -41 -22
-51 -32 -10 -10 -25 -16 -34 -13 -10 4 -13 2 -10 -7 4 -11 -9 -14 -69 -12 -41
2 -76 -1 -79 -5 -3 -4 -14 -6 -24 -3 -10 3 -22 0 -25 -6 -4 -6 -16 -11 -27
-11 -10 0 -19 -4 -19 -10 0 -5 -22 -10 -49 -10 -26 0 -72 -5 -101 -10 -36 -7
-57 -7 -65 0 -15 13 -98 -3 -103 -19 -4 -13 -26 -14 -50 -2 -36 19 -100 33
-121 26 -11 -3 -21 -3 -21 2 0 4 -7 17 -16 28 -13 17 -16 18 -24 5 -7 -10 -10
-11 -10 -2 0 15 -37 16 -42 0 -5 -15 -120 -11 -153 6 -13 7 -22 16 -19 19 8 7
-34 29 -45 23 -4 -3 -26 14 -47 37 -22 23 -53 53 -69 66 -28 22 -28 23 -5 16
23 -7 23 -7 7 9 -9 10 -17 23 -17 29 0 7 -4 7 -9 -2 -6 -9 -7 18 -4 70 3 46 9
88 13 93 11 11 30 -2 30 -20 0 -8 5 -12 11 -9 6 4 8 13 5 21 -3 8 1 14 9 14 8
0 15 4 15 9 0 8 14 15 41 20 3 0 4 -10 1 -24z m-402 -1015 c0 -5 -2 -10 -4
-10 -3 0 -8 5 -11 10 -3 6 -1 10 4 10 6 0 11 -4 11 -10z"/>
<path d="M2220 3180 c-12 -8 -10 -10 8 -10 13 0 20 4 17 10 -7 12 -6 12 -25 0z"/>
<path d="M2630 2403 c-19 -3 -39 -9 -44 -14 -6 -5 -17 -9 -26 -9 -9 0 -24 -8
-34 -19 -11 -12 -30 -18 -56 -18 -22 0 -46 -5 -54 -12 -10 -9 -16 -8 -26 4
-12 14 -15 14 -30 0 -13 -12 -20 -13 -25 -5 -15 24 -59 32 -117 20 -118 -25
-163 -121 -119 -255 27 -84 95 -94 173 -24 23 21 54 41 67 44 25 6 81 -11 81
-25 0 -15 76 -17 121 -3 44 14 47 14 114 -16 89 -41 157 -43 181 -6 9 14 20
43 25 63 4 20 11 50 15 66 5 20 0 42 -17 76 -20 40 -34 53 -85 79 -35 18 -69
29 -78 25 -12 -4 -16 0 -16 15 0 12 -3 20 -7 19 -5 0 -24 -3 -43 -5z"/>
<path d="M2110 1756 c0 -8 -3 -21 -6 -30 -4 -11 -1 -16 10 -16 9 0 16 8 16 18
0 10 5 23 12 30 9 9 7 12 -10 12 -12 0 -22 -6 -22 -14z"/>
<path d="M3727 2763 c-15 -14 -5 -23 27 -23 21 0 36 6 40 15 4 11 -2 15 -28
15 -18 0 -36 -3 -39 -7z"/>
<path d="M1015 1740 c-3 -5 -1 -10 4 -10 6 0 11 5 11 10 0 6 -2 10 -4 10 -3 0
-8 -4 -11 -10z"/>
</g>
</svg>
