<?xml version="1.0" standalone="no"?>
<!DOCTYPE svg PUBLIC "-//W3C//DTD SVG 20010904//EN"
 "http://www.w3.org/TR/2001/REC-SVG-20010904/DTD/svg10.dtd">
<svg version="1.0" xmlns="http://www.w3.org/2000/svg"
 width="709.000000pt" height="709.000000pt" viewBox="0 0 709.000000 709.000000"
 preserveAspectRatio="xMidYMid meet">
<metadata>
Created by potrace 1.14, written by Peter Selinger 2001-2017
</metadata>
<g transform="translate(0.000000,709.000000) scale(0.100000,-0.100000)"
fill="#000000" stroke="none">
<path d="M2630 5990 l0 -140 80 0 80 0 0 -135 0 -136 108 3 107 3 3 138 3 137
-111 0 -110 0 0 135 0 135 -80 0 -80 0 0 -140z"/>
<path d="M4050 5995 l0 -135 -85 0 -85 0 0 -140 0 -140 -95 0 -95 0 0 140 0
140 -85 0 -85 0 0 130 0 130 -80 0 -80 0 0 -130 0 -130 -85 0 -85 0 0 -140 0
-140 -85 0 -85 0 0 -105 0 -105 -115 0 -116 0 5 -47 c3 -27 5 -56 5 -66 1 -10
6 -15 11 -12 6 3 10 2 10 -4 0 -5 -6 -12 -12 -14 -8 -3 -6 -6 5 -6 9 -1 17 -6
17 -11 0 -6 -8 -10 -17 -8 -16 3 -18 -8 -16 -122 2 -69 5 -131 8 -137 3 -10
101 -13 440 -13 l436 0 -3 -77 -3 -78 -82 -3 -83 -3 0 -304 0 -305 -70 0 -70
0 0 -85 0 -85 70 0 70 0 0 -210 0 -210 350 0 350 0 1 73 c1 39 1 91 0 115 l-2
42 191 0 190 0 0 -112 c0 -61 2 -109 4 -107 2 2 7 91 11 197 l7 192 -286 0
-286 0 0 615 0 615 85 0 85 0 0 465 0 465 -80 0 -80 0 0 -135z m-382 -424 c9
-1 12 -29 12 -106 l0 -105 95 0 95 0 0 -78 0 -77 -391 -4 c-321 -2 -393 -1
-400 10 -6 10 -9 11 -9 2 0 -8 -13 -13 -30 -13 l-30 0 0 80 0 80 175 0 175 0
0 108 0 107 148 -2 c81 -1 153 -2 160 -2z m-798 -228 c0 -12 -3 -14 -8 -7 -4
7 -16 14 -27 17 -15 4 -14 5 8 6 20 1 27 -4 27 -16z m0 -85 c0 -39 -4 -58 -9
-49 -5 7 -6 22 -3 33 3 13 -1 24 -12 30 -17 9 -16 11 1 28 10 10 19 19 21 19
1 1 2 -27 2 -61z"/>
<path d="M1867 4773 c-4 -3 -7 -69 -7 -145 l0 -138 -100 0 -100 0 0 -85 0 -85
100 0 100 0 0 80 0 80 84 0 83 0 0 -75 c1 -49 -3 -75 -11 -75 -8 0 -8 -2 1 -8
16 -10 12 -124 -4 -117 -7 2 -13 0 -13 -5 0 -5 8 -11 18 -13 9 -3 -22 -5 -70
-6 l-88 -1 0 -90 0 -90 90 0 90 0 0 -315 0 -315 100 0 100 0 0 99 0 98 92 7
c50 3 174 6 275 6 l183 0 0 195 0 195 -275 0 -275 0 0 260 0 260 -105 0 -105
0 0 145 0 145 -78 0 c-43 0 -82 -3 -85 -7z"/>
<path d="M3180 4630 l0 -140 80 0 80 0 0 140 0 140 -80 0 -80 0 0 -140z"/>
<path d="M4760 4630 l0 -140 -80 0 -80 0 0 -85 0 -85 80 0 80 0 0 -160 0 -160
80 0 80 0 -2 -482 -3 -483 -130 -2 c-187 -3 -175 -10 -175 103 l0 94 -85 0
-85 0 0 65 0 65 -115 0 -115 0 0 -160 0 -160 -110 -1 c-60 -1 -117 -1 -125 -1
-8 0 -33 0 -55 1 l-40 1 0 159 0 158 -175 7 c-96 4 -180 4 -185 1 -6 -3 -10
-37 -10 -76 l0 -69 -75 0 -75 0 0 -95 0 -95 -90 0 -90 0 0 100 0 100 -162 0
c-90 0 -206 -3 -258 -6 l-96 -7 4 -87 c5 -101 8 -97 -89 -92 l-59 4 0 94 0 94
-240 0 -240 0 0 -95 0 -95 -192 0 -191 0 6 233 c3 127 3 298 0 379 l-6 146
-828 0 -829 0 0 -974 0 -974 203 0 c112 0 206 -2 208 -4 2 -2 3 -43 1 -90 l-3
-86 -205 0 -204 0 0 -835 0 -835 3265 0 3265 0 0 54 c0 30 5 58 11 61 6 4 107
4 225 0 l214 -7 0 -54 0 -54 55 0 55 0 0 835 0 835 -120 0 -120 0 0 90 0 90
120 0 120 0 0 140 0 140 -112 0 -113 0 0 -82 0 -83 -202 -3 -203 -2 0 95 0 95
195 0 195 0 0 85 0 85 120 0 120 0 0 270 0 269 -117 3 -118 3 -3 93 -3 92 121
0 120 0 0 370 0 370 -457 0 c-485 0 -1476 11 -1482 16 -2 2 -6 156 -9 343 l-5
341 -108 0 -109 0 0 140 0 140 -80 0 -80 0 0 -140z m68 -170 c7 -11 18 -20 25
-19 9 0 9 2 -1 6 -6 2 -9 10 -6 15 4 7 2 8 -4 4 -7 -4 -12 -2 -12 3 0 6 18 11
40 11 l40 0 0 -150 0 -150 -68 0 -69 0 -6 107 c-4 58 -7 126 -7 150 0 40 2 43
28 43 16 0 32 -8 40 -20z m-4120 -1507 c2 -57 7 -95 15 -101 7 -6 46 -14 87
-19 l74 -8 3 -99 c2 -55 5 -102 8 -104 3 -3 369 -4 814 -3 l810 2 3 -83 3 -83
139 -3 138 -3 -7 -149 -7 -150 706 0 705 0 3 148 3 147 113 3 112 3 0 84 0 85
731 0 731 0 -4 108 -3 107 87 3 87 3 3 99 3 99 203 5 202 6 0 -140 0 -140
-180 0 -180 0 -2 -222 -3 -223 -752 -3 -753 -2 0 -95 0 -95 -80 0 -80 0 0
-140 0 -140 -115 0 c-70 0 -115 4 -115 10 0 6 -93 10 -260 10 l-260 0 0 -30 0
-30 -90 0 -90 0 0 31 0 30 -332 -4 c-183 -2 -345 -7 -360 -12 l-28 -7 0 61 0
61 -80 0 -80 0 0 75 0 75 -87 1 c-49 1 -126 3 -173 4 -47 1 -140 3 -207 3
l-123 2 0 95 0 95 -659 0 -659 0 -6 68 c-4 37 -8 96 -9 132 l-2 65 70 3 c93 4
111 22 22 22 l-67 0 0 85 0 85 -195 0 -195 0 0 130 0 129 93 4 c50 2 133 3
182 3 l90 -1 3 -92z m5155 -1426 c-2 -4 -3 -50 -3 -102 l0 -95 -365 0 -365 0
0 99 c0 86 2 100 17 103 33 6 718 1 716 -5z m-4443 -102 l0 -105 -357 2 -358
3 -3 103 -3 102 361 0 360 0 0 -105z m2270 -615 l0 -100 -1015 0 -1015 0 0 98
0 97 1015 2 1015 3 0 -100z m0 -415 l0 -95 -67 0 c-38 -1 -155 -3 -260 -7
l-193 -6 0 102 0 101 260 0 260 0 0 -95z"/>
<path d="M4880 4429 c11 -8 12 -12 2 -16 -6 -2 -10 -9 -6 -14 10 -18 24 -9 24
16 0 17 -5 25 -17 25 -16 0 -16 -2 -3 -11z"/>
<path d="M4770 4409 c0 -5 5 -7 10 -4 6 3 10 8 10 11 0 2 -4 4 -10 4 -5 0 -10
-5 -10 -11z"/>
<path d="M4846 4396 c6 -15 34 -30 34 -18 0 4 -9 13 -20 19 -16 11 -18 10 -14
-1z"/>
<path d="M4783 4337 c-18 -21 -17 -21 1 -7 11 8 27 14 38 12 24 -4 23 4 -1 11
-13 3 -27 -3 -38 -16z"/>
<path d="M4885 4340 c-3 -5 -1 -10 4 -10 6 0 11 5 11 10 0 6 -2 10 -4 10 -3 0
-8 -4 -11 -10z"/>
<path d="M4892 4258 c-1 -16 -7 -28 -14 -28 -9 0 -9 -3 0 -12 17 -17 24 -5 19
34 -3 29 -4 29 -5 6z"/>
<path d="M4846 4248 c3 -5 10 -6 15 -3 13 9 11 12 -6 12 -8 0 -12 -4 -9 -9z"/>
<path d="M4822 4231 c-27 -16 -1 -40 41 -39 23 1 34 3 25 6 -10 2 -18 7 -18
12 0 15 -35 29 -48 21z m28 -21 c0 -5 -4 -10 -10 -10 -5 0 -10 5 -10 10 0 6 5
10 10 10 6 0 10 -4 10 -10z"/>
<path d="M1975 4461 c17 -3 29 -10 28 -14 -6 -17 -2 -21 7 -7 16 25 12 30 -27
29 -37 -1 -37 -2 -8 -8z"/>
<path d="M1966 4425 c4 -8 8 -15 10 -15 2 0 4 7 4 15 0 8 -4 15 -10 15 -5 0
-7 -7 -4 -15z"/>
<path d="M1918 4193 c7 -3 16 -2 19 1 4 3 -2 6 -13 5 -11 0 -14 -3 -6 -6z"/>
<path d="M4415 3780 c3 -5 8 -10 11 -10 2 0 4 5 4 10 0 6 -5 10 -11 10 -5 0
-7 -4 -4 -10z"/>
<path d="M4525 3780 c3 -5 8 -10 11 -10 2 0 4 5 4 10 0 6 -5 10 -11 10 -5 0
-7 -4 -4 -10z"/>
<path d="M4543 3583 c9 -2 23 -2 30 0 6 3 -1 5 -18 5 -16 0 -22 -2 -12 -5z"/>
</g>
</svg>
